<svg xmlns="http://www.w3.org/2000/svg" viewBox="0 0 32 32">
  <defs>
    <linearGradient id="bgGrad" x1="0%" y1="0%" x2="100%" y2="100%">
      <stop offset="0%" style="stop-color:#FF7A00"/>
      <stop offset="100%" style="stop-color:#ED6C00"/>
    </linearGradient>
  </defs>

  <!-- 배경 -->
  <rect width="32" height="32" rx="6" fill="url(#bgGrad)"/>

  <!-- YJ 로고 글자 (원본에서 추출, 스케일 및 위치 조정) -->
  <g transform="translate(-1.5, 3) scale(0.145)">
    <!-- Y 글자 -->
    <path fill="white" d="M106.7,67c1.8,5.8,4,13.2,4.9,16.5.8,3.3,1.9,6.3,2.3,6.8.4.4,2.7-2.1,5.1-5.5,2.4-3.5,8.1-11.4,12.7-17.6l8.3-11.2h25c13.7,0,25,.2,25,.5s-3.3,4.5-7.2,9.3c-4,4.8-11.9,14.8-17.6,22.2s-13.9,18-18.3,23.5c-11,13.8-14.9,19.2-14.2,19.9.4.3,1.8.6,3.2.6,2.3.1,2.4.2.9,1.3-1.5,1.2-3.6,9.4-13.2,52.7l-2.1,9.5-22.8.3-22.7.2v-2.2c0-1.3,1.2-7.3,2.5-13.3,10.6-46.9,10.6-47.1,3-47.7l-4-.3-3.3-9.5c-1.8-5.2-4.4-13-5.8-17.2-1.3-4.2-5.6-16.5-9.4-27.3-3.9-10.8-7-20.2-7-21.1s3.6-1.4,25.7-1.2l25.7.3,3.3,10.5h0Z"/>
    <!-- J 글자 -->
    <path fill="white" d="M277,58.1c0,1.2-1.1,7.2-2.4,13.3-1.4,6.1-2.8,12.7-3.1,14.6-.4,1.9-2.7,11.8-5.1,22s-4.8,20.2-5.3,22.2c-1,4.4-.8,4.8,3.6,4.8s3.9-.3,1.3,12c-4.8,23.7-13.7,36.3-31.5,45-14,6.8-30.1,8.7-47.6,5.5-12.5-2.3-16.9-3.7-16.9-5.5s.9-6.2,2.1-12c1.1-5.8,2.5-12.9,3-15.8l1-5.2h6.6c6.3,0,6.8.2,10.8,3.9,5.8,5.3,10,6.1,16.2,3s5.5-3.6,7.1-6.6c2.2-4,6.4-22,5.5-23.6-.2-.4-2-.7-3.9-.7s-3.4-.4-3.4-.9c0-1.5,2.8-14.7,6-27.9,1.7-6.7,3-13.2,3-14.2,0-1.9-.7-2-12.9-2s-13.2-.3-13.4-.8c-.5-.7,4.7-29.2,5.8-32,.3-.9,8.7-1.2,37-1.2h36.5v2.1h0Z"/>
  </g>
</svg>
