<?xml version="1.0" encoding="UTF-8"?>
<svg id="_레이어_1" xmlns="http://www.w3.org/2000/svg" version="1.1" viewBox="0 0 1014.5 252.3">
  <!-- Generator: Adobe Illustrator 29.3.1, SVG Export Plug-In . SVG Version: 2.1.0 Build 151)  -->
  <defs>
    <style>
      .st0 {
        fill: #ed6c00;
      }
    </style>
  </defs>
  <path class="st0" d="M18.4,1.2C12.8,3,5.8,9.2,2.8,14.9l-2.8,5.3v105.2c.1,113.5-.1,108.8,5.4,116.1,3.6,4.7,11.8,9.3,18.1,10,7.5.9,975.5,1.1,975.5.2s.7-.7,1.7-.7,1.3-.3,1-.7c-.8-.7,3.4-3.9,4.6-3.5.5.1.6-.2.2-.8-.3-.5,0-1.3.8-1.6s2.8-3.3,4.3-6.7l2.9-6.2-.3-104.5c0-75.3-.5-105.5-1.4-108-2.7-8.3-10.2-15.6-18.3-17.9C989.1-.4,23-.3,18.4,1.2h0ZM692.5,54c9.4,1.1,19.5,3.7,27.9,7.3l4.8,2-.7,5.1c-.3,2.8-1.9,10.3-3.4,16.6-1.6,6.3-3.2,12.7-3.5,14.2-.6,2.7-.8,2.8-7.7,2.8s-7-.1-8-2.9c-2.9-8.2-20.9-15.1-31.7-12.2-4.5,1.3-10,5.6-10.3,8.1-.6,5.6,1.7,7,20.1,12.5,6.9,2,14.7,4.8,17.3,6.3,6.4,3.5,12.2,9.1,13.8,13.5,1.1,3.2,1.6,3.5,4.1,3s3-.1,4.3,3c2.6,6.3,1.3,23.7-2,27-.7.8-2.5,3.6-3.9,6.5-6.1,12.1-22.9,24.1-40.8,29.2-10.7,3.1-30.6,3.8-41.8,1.5-9.3-1.9-28.2-8.8-29.9-10.9-1.4-1.7,5.1-36.3,7.1-38.2.7-.6,4.3-1.5,8-1.9l6.7-.6,2.5,4.8c5.1,10.2,12.9,14.7,26.1,15.1,7.8.3,9.6,0,13.4-2,8.3-4.4,9.3-11.1,2.3-14.7-2.1-1.1-7.9-3.1-12.8-4.5-12.6-3.7-19-6.2-24.1-9.7-3.2-2.2-4.7-2.8-5.7-2-2,1.7-7.3-2.3-9.9-7.6-3.5-7.1-4.9-13.8-4.2-20.2,2.1-17.6,11.4-31.6,27.4-41.1,15.5-9.2,32.9-12.4,54.6-10h0ZM106.7,67c1.8,5.8,4,13.2,4.9,16.5.8,3.3,1.9,6.3,2.3,6.8.4.4,2.7-2.1,5.1-5.5,2.4-3.5,8.1-11.4,12.7-17.6l8.3-11.2h25c13.7,0,25,.2,25,.5s-3.3,4.5-7.2,9.3c-4,4.8-11.9,14.8-17.6,22.2s-13.9,18-18.3,23.5c-11,13.8-14.9,19.2-14.2,19.9.4.3,1.8.6,3.2.6,2.3.1,2.4.2.9,1.3-1.5,1.2-3.6,9.4-13.2,52.7l-2.1,9.5-22.8.3-22.7.2v-2.2c0-1.3,1.2-7.3,2.5-13.3,10.6-46.9,10.6-47.1,3-47.7l-4-.3-3.3-9.5c-1.8-5.2-4.4-13-5.8-17.2-1.3-4.2-5.6-16.5-9.4-27.3-3.9-10.8-7-20.2-7-21.1s3.6-1.4,25.7-1.2l25.7.3,3.3,10.5h0ZM277,58.1c0,1.2-1.1,7.2-2.4,13.3-1.4,6.1-2.8,12.7-3.1,14.6-.4,1.9-2.7,11.8-5.1,22s-4.8,20.2-5.3,22.2c-1,4.4-.8,4.8,3.6,4.8s3.9-.3,1.3,12c-4.8,23.7-13.7,36.3-31.5,45-14,6.8-30.1,8.7-47.6,5.5-12.5-2.3-16.9-3.7-16.9-5.5s.9-6.2,2.1-12c1.1-5.8,2.5-12.9,3-15.8l1-5.2h6.6c6.3,0,6.8.2,10.8,3.9,5.8,5.3,10,6.1,16.2,3s5.5-3.6,7.1-6.6c2.2-4,6.4-22,5.5-23.6-.2-.4-2-.7-3.9-.7s-3.4-.4-3.4-.9c0-1.5,2.8-14.7,6-27.9,1.7-6.7,3-13.2,3-14.2,0-1.9-.7-2-12.9-2s-13.2-.3-13.4-.8c-.5-.7,4.7-29.2,5.8-32,.3-.9,8.7-1.2,37-1.2h36.5v2.1h0ZM435.4,58c-.3,3.3-7.5,37.5-11.5,54.5-5.3,23-5.3,21.9-.6,22.3,2,.2,3.7.9,3.7,1.5s-1.2,5.7-2.5,11.2c-1.4,5.5-2.5,10.6-2.5,11.4s4.1,1.2,23.3.6c12.7-.3,23.8-.2,24.5.3.9.6.6,4.1-1.8,16.2-2.6,13.4-3,17.6-1.7,15.9.7-.8,28.7-54.9,28.7-55.4s-1.6-.7-3.5-1.1c-1.9-.3-3.5-1.1-3.5-1.7,0-1.3,7.8-15.9,17.5-32.7,4-6.9,11.1-19.8,16-28.8l8.7-16.2,22.6.2,22.6.3,1.8,16c.9,8.8,2.4,24.3,3.3,34.5s2,20.5,2.3,23c.5,3,2.2,4.7,5.2,5l4.5.5.7,5.5c2.7,22.5,4.9,45.3,4.6,49.5l-.3,5-21.9.3c-12.1.1-22.3-.1-22.8-.6s-2.6-18.2-2.8-24.5c0-1-24.2-.8-25.9.2-.8.5-4.2,6.3-7.5,12.8l-6.1,11.8-70.5.3c-38.8.1-71,0-71.6-.2-1.2-.4,3.5-25.2,9.1-48.6,1.3-5.8,2.5-11.1,2.5-11.8s-1.3-1.2-3.4-1.2-3.7-.3-3.9-.8c-.2-.4.9-5.9,2.4-12.2,3.1-12.2,10.3-45.8,12-55,.5-3,1.2-6.5,1.5-7.8l.4-2.2,23.3.2c19.9.3,23.2.5,23.1,1.8h0ZM837.5,60.6c-1.5,10.4-6.4,29.7-7.6,30.5-.8.5-12.7.9-26.6.9h-25.2l-.5,3.2c-.3,1.8-.7,4.4-.8,5.8l-.3,2.5h22.3c12.2.2,22.5.5,22.8.7.2.3-.7,7-2.1,14.9s-2.5,14.4-2.5,14.6,1.5.3,3.2.5c2.2.2,3.4.9,3.6,2,.3,1.6-1.5,1.8-23.5,2l-23.8.3-1.6,7.3c-1,4-2,9-2.4,11.2l-.7,4h25.6c14.1,0,25.6.1,25.6.2,0,2.6-5.1,25.1-7.1,31.5l-1.1,3.3h-94.9l.7-3.8c.8-4.7,4.5-23.5,8.3-42.2,1.6-7.9,2.7-14.8,2.5-15.2-.3-.4-1.9-.8-3.5-.8s-3.2-.6-3.5-1.4c-.3-.7,2.6-14.8,6.4-31.2,3.9-16.5,7.7-33.4,8.7-37.7l1.6-7.7h97.1l-.7,4.6h0ZM925.4,57.5c10.5,2,15.8,4.5,21.9,10.7,8.3,8.3,10.2,15.8,7.2,28.7-2.3,9.7-8,19.6-15.7,27.4-3.8,3.7-6.8,7-6.8,7.2,0,.3,1.1.5,2.5.5,3.2,0,3.2,1.7,0,3.1l-2.4,1.1,2.3,5.2c1.3,2.8,4.1,9.1,6.3,14.1,2.2,4.9,7.6,15.7,12.1,23.9s8.1,15.3,8.1,15.8-12,.8-26.6.8h-26.5l-3.2-7.3c-3.5-8.1-17.5-35.7-18.8-37.1-.5-.5-1.1-.8-1.3-.5-.3.3-2.2,9.5-4.2,20.4-2,11-4,21-4.5,22.2-.8,2.3-1,2.3-22.9,2.3h-22v-3.3c0-1.7,1.4-9.3,3.1-16.7,2.7-12.2,8.9-41.8,8.9-42.7s-1.4-.3-3-.3-3.3-.6-3.6-1.5c-.3-.8,1.9-12.6,5.1-26.1,3.1-13.6,6.5-29.2,7.6-34.8,1.1-5.5,2.4-11.1,2.9-12.4l1-2.2h32.4c24.2,0,34.4.4,40,1.5h0Z"/>
  <path class="st0" d="M535.1,115c-1.8,4.7-4.4,11.2-5.6,14.6l-2.4,6.1,8.2.7c11.1.8,13.7.8,13.7-.3s-2.1-1.1-4.7-1.3l-4.8-.3-.5-14-.5-14-3.4,8.5h0Z"/>
  <path class="st0" d="M890.6,91.7c-1.9,6.9-4.8,21.5-4.3,22,1.3,1.2,12.1-1.8,15.4-4.3,8.3-6.3,6.7-16.1-2.8-18.3-6.2-1.5-7.7-1.3-8.3.6h0Z"/>
</svg>