<?xml version="1.0" encoding="UTF-8"?>
<svg id="_레이어_1" xmlns="http://www.w3.org/2000/svg" version="1.1" viewBox="0 0 359 55.1">
  <!-- Generator: Adobe Illustrator 29.3.1, SVG Export Plug-In . SVG Version: 2.1.0 Build 151)  -->
  <defs>
    <style>
      .st0 {
        fill: #ed6c00;
      }
    </style>
  </defs>
  <path class="st0" d="M0,.8c0,.5,2.1,7,4.7,14.6,3.8,11.3,5.1,14,7,14.8,1.3.5,2.3,1.3,2.3,1.8s-1.1,5.7-2.5,11.5-2.5,10.8-2.5,11.1,4,.5,9,.5c8.5,0,9-.1,9.5-2.3.2-1.2,1.6-6.7,2.9-12.2s2-10.2,1.5-10.5c-.4-.3,4.4-7.1,10.7-15L54.2.6l-8.8-.3c-4.8-.2-9.3-.1-10,.2s-3.5,3.5-6.3,7.1l-5,6.7-2.1-7.1L19.8.1h-9.9C4.5.1,0,.4,0,.8h0Z"/>
  <path class="st0" d="M237,1c-4.1,1.3-10.4,4.8-12.1,6.7-2.5,2.8-4.6,7.5-5.4,11.6-.8,4.4,1.8,10.8,4.5,10.8s3.7.8,6.1,1.9c2.4,1,6.5,2.6,9.2,3.5,5.1,1.9,5.8,3.3,2.9,5.9-3.8,3.5-14.7,1.3-17.2-3.3-.7-1.3-2.1-2-3.9-2-2.6,0-2.8.4-4.3,7.2-1.8,8.2-2,7.8,5.9,10.3,3.8,1.2,7.8,1.6,13.6,1.4,10.4-.5,18.3-4.1,22.9-10.5,4.5-6.2,5.8-14.4,2.3-14.4s-2-1.1-2.9-2.5c-1.9-2.9-6.1-5.2-13.6-7.5-4.2-1.2-5.6-2.1-5.8-3.7-.7-5,10.7-5.5,15.5-.7s3.5,2.4,4.8,2.4c2.5,0,3.4-1.9,5-11l.6-3.6-5.4-1.7c-5.5-1.8-18.1-2.2-22.7-.8h0Z"/>
  <path class="st0" d="M315.5,1.3c-.2.7-1.5,6.7-3,13.3s-2.9,12.8-3.1,13.7c-.4,1.2,0,1.8,1,1.8,2,0,2.1-.9-.9,12.2-1.4,6.1-2.5,11.5-2.5,12s3.9.7,8.8.6l8.7-.3,2-8.2c1.1-4.6,2.2-8.3,2.5-8.3s2.5,3.8,4.8,8.5l4.2,8.5h10.5c5.8,0,10.5-.3,10.5-.6s-2.5-5.4-5.6-11.1-5.3-11.1-5-11.9,0-1.4-.6-1.4.2-1.5,1.9-3.3c8.6-9,8.9-19.3.8-23.1-6.9-3.3-34.1-5.1-35-2.4h0ZM335.4,14.7c4,1.5,0,8.4-4.7,8.4s-1.7-.5-1.1-3.8c1-5.5,1.8-6.1,5.8-4.6Z"/>
  <path class="st0" d="M58.2,6.2c-1.2,5.3,0,7.9,3.8,7.9,5.7,0,5.6-.1,3.5,8.5-1.8,7.6-1.8,8.5,0,8.5s1.5.4,1.5.9c0,1.8-2.4,7.7-3.8,9.3-1.9,2.3-7.8,2.4-9,.2-.5-.9-1.8-1.4-3.3-1.2-2,.2-2.6,1.2-3.8,6.5-.8,3.5-1.1,6.6-.7,7,1.6,1.7,17.4,1.5,22.4-.1,8.3-2.8,14-9.7,15.8-19.1.5-2.8.3-3.5-1-3.5-2,0-2.1.8,1.4-14.4,1.7-7.2,3-13.6,3-14.3,0-1-3.2-1.3-14.3-1.3h-14.4l-1.1,5.1Z"/>
  <path class="st0" d="M129.1,15.3c-3.6,16.4-3.5,15.6-1.8,16,1.1.2.9,2.3-.9,10.3-1.3,5.5-2.4,10.6-2.4,11.2,0,1,6.3,1.3,28,1.3h28l2.5-5.1,2.6-5,5.2.3,5.2.3.3,4.7.3,4.8h18.5l-1.1-11.3c-.9-10.3-1.2-11.2-3.1-11.5-2-.3-2.3-1.2-3.5-15.3l-1.3-14.9h-18.3l-8.2,14.6c-4.4,8-8.1,14.7-8.1,15s.7.4,1.5.4,1.5.3,1.5.7c0,.5-2.8,5.5-6.1,11.3s-5.8,9.4-5.5,8c.2-1.4.8-4.2,1.1-6.3l.7-3.7h-9.6c-10.5,0-10.2.2-8.7-6.3.7-2.9.6-3.7-.5-3.7-1.9,0-1.8-.2,1.6-15.2,1.7-7.1,3-13.4,3-13.9s-4-.9-8.8-.9h-8.9l-3.2,14.2ZM193.2,31.1c1.2,0,1.9.3,1.5.6-.3.3-2.3.3-4.5-.1l-4-.6,2.2-5.5,2.1-5.4.3,5.5c.3,4.8.6,5.5,2.4,5.5Z"/>
  <path class="st0" d="M269,10.8c-1.2,5.4-2.8,12.2-3.5,15-1.2,5-1.2,5.3.6,5.3s1.8.5,1.4,2.2c-.3,1.3-1.4,6.1-2.5,10.8s-2,9.1-2,9.8c0,1,4.2,1.2,19.2,1l19.2-.3,1.2-5.5c2-8.5,2.6-8-8.6-8s-10-.3-10-.8.5-2.4,1.1-4.5l1-3.7h9.7c5.3-.2,8.9-.4,7.8-.7-1.8-.5-1.9-3.2,0-10.1.6-2.2.5-2.2-8.8-2.2h-9.5l.5-2.5c.4-2.5.5-2.5,10.7-2.5s10.5.4,12-6.5c.3-1.7.8-3.8,1.1-4.8.5-1.6-.9-1.7-18.9-1.7h-19.5l-2.2,9.7h0Z"/>
</svg>